<svg width="20" height="24" viewBox="0 0 20 24" fill="none" xmlns="http://www.w3.org/2000/svg">
<g clip-path="url(#clip0_5159_1811)">
<path d="M16.9664 1.86771C15.8779 0.605566 13.91 0.0644531 11.3926 0.0644531H4.08637C3.83728 0.064414 3.59636 0.154788 3.40693 0.319318C3.2175 0.483849 3.092 0.711736 3.05301 0.96199L0.0108242 20.5885C-0.0496445 20.9755 0.244965 21.326 0.63059 21.326H5.14121L6.27403 14.017L6.23887 14.2459C6.31957 13.7293 6.75395 13.3482 7.26832 13.3482H9.41176C13.6225 13.3482 16.9197 11.6085 17.8828 6.57569C17.9114 6.42684 17.9361 6.28196 17.9575 6.14043C17.836 6.07494 17.836 6.07494 17.9575 6.14043C18.2443 4.28027 17.9556 3.01407 16.9664 1.86771Z" fill="#27346A"/>
<path d="M7.99997 5.47033C8.12325 5.41051 8.25814 5.37955 8.39473 5.37974H14.1227C14.801 5.37974 15.4336 5.42464 16.0118 5.51929C16.1735 5.54555 16.3345 5.57687 16.4943 5.61322C16.7209 5.66409 16.9449 5.72634 17.1654 5.79974C17.4497 5.89629 17.7143 6.00874 17.9576 6.14043C18.2443 4.27955 17.9556 3.01407 16.9664 1.86771C15.8772 0.605566 13.91 0.0644531 11.3926 0.0644531H4.08575C3.57129 0.0644531 3.13364 0.445433 3.05301 0.96199L0.0108246 20.5878C-0.0496441 20.9754 0.244965 21.3254 0.629965 21.3254H5.14122L7.49145 6.1649C7.51458 6.01589 7.57294 5.87483 7.66152 5.75384C7.7501 5.63285 7.86624 5.53556 7.99997 5.47033Z" fill="#27346A"/>
<path d="M17.8822 6.57588C16.9191 11.6079 13.6221 13.3484 9.41123 13.3484H7.26717C6.75279 13.3484 6.31834 13.7295 6.23842 14.2461L4.82912 23.3339C4.77646 23.6726 5.03396 23.9795 5.37084 23.9795H9.17318C9.39099 23.9795 9.60163 23.9004 9.76723 23.7564C9.93282 23.6125 10.0425 23.4132 10.0765 23.1944L10.1136 22.9973L10.8302 18.3772L10.8764 18.1219C10.9104 17.903 11.0201 17.7037 11.1857 17.5598C11.3512 17.4159 11.5619 17.3368 11.7797 17.3367H12.3487C16.0321 17.3367 18.9162 15.8145 19.759 11.4122C20.1108 9.57247 19.9288 8.03647 18.9982 6.95758C18.7159 6.6308 18.3654 6.36092 17.957 6.14062C17.9349 6.28288 17.9109 6.42704 17.8822 6.57588Z" fill="#2790C3"/>
<path d="M16.9493 5.73283C16.7992 5.68823 16.6476 5.64874 16.4948 5.61442C16.3349 5.57865 16.1739 5.54754 16.0122 5.52113C15.4335 5.42584 14.8013 5.38086 14.1224 5.38086H8.39512C8.25844 5.38063 8.12349 5.41184 8.00035 5.47217C7.86646 5.53717 7.75016 5.63439 7.66154 5.75542C7.57291 5.87645 7.51464 6.01763 7.49176 6.16674L6.27441 14.0182L6.23926 14.2471C6.31934 13.7305 6.75371 13.3494 7.26816 13.3494H9.41223C13.623 13.3494 16.92 11.6097 17.8832 6.57689C17.9118 6.42804 17.9359 6.2838 17.958 6.14163C17.7142 6.01077 17.4501 5.89742 17.1658 5.80158C17.0941 5.77738 17.0219 5.75446 16.9494 5.73283" fill="#1F264F"/>
</g>
<defs>
<clipPath id="clip0_5159_1811">
<rect width="20" height="24" fill="white"/>
</clipPath>
</defs>
</svg>
